<?xml version="1.0" encoding="UTF-8" standalone="no"?>
<!-- Created with Inkscape (http://www.inkscape.org/) -->

<svg
   xmlns:dc="http://purl.org/dc/elements/1.1/"
   xmlns:cc="http://creativecommons.org/ns#"
   xmlns:rdf="http://www.w3.org/1999/02/22-rdf-syntax-ns#"
   xmlns:svg="http://www.w3.org/2000/svg"
   xmlns="http://www.w3.org/2000/svg"
   xmlns:sodipodi="http://sodipodi.sourceforge.net/DTD/sodipodi-0.dtd"
   xmlns:inkscape="http://www.inkscape.org/namespaces/inkscape"
   width="1200"
   height="314"
   viewBox="0 0 1200 313.99999"
   id="svg2"
   version="1.1"
   inkscape:version="0.47 r22583"
   sodipodi:docname="martini.svg">
  <defs
     id="defs4">
    <inkscape:perspective
       sodipodi:type="inkscape:persp3d"
       inkscape:vp_x="0 : 344.2001 : 1"
       inkscape:vp_y="0 : 1000 : 0"
       inkscape:vp_z="652.21564 : 344.2001 : 1"
       inkscape:persp3d-origin="326.10782 : 229.46674 : 1"
       id="perspective15" />
  </defs>
  <sodipodi:namedview
     id="base"
     pagecolor="#ffffff"
     bordercolor="#666666"
     borderopacity="1.0"
     inkscape:pageopacity="0"
     inkscape:pageshadow="2"
     inkscape:zoom="0.98994949"
     inkscape:cx="414.29132"
     inkscape:cy="346.35381"
     inkscape:document-units="px"
     inkscape:current-layer="layer1"
     showgrid="false"
     fit-margin-top="1"
     fit-margin-left="1"
     fit-margin-right="1"
     fit-margin-bottom="1"
     inkscape:window-width="1920"
     inkscape:window-height="1030"
     inkscape:window-x="0"
     inkscape:window-y="25"
     inkscape:window-maximized="1"
     showguides="true"
     inkscape:guide-bbox="true"
     inkscape:snap-grids="true" />
  <metadata
     id="metadata7">
    <rdf:RDF>
      <cc:Work
         rdf:about="">
        <dc:format>image/svg+xml</dc:format>
        <dc:type
           rdf:resource="http://purl.org/dc/dcmitype/StillImage" />
        <dc:title />
      </cc:Work>
    </rdf:RDF>
  </metadata>
  <g
     inkscape:label="Layer 1"
     inkscape:groupmode="layer"
     id="layer1"
     transform="translate(-55.978535,-701.29423)">
    <path
       style="fill:#000000"
       d="m 252.45398,993.46084 c -4.87184,-0.87633 -12.71632,-4.57451 -12.71632,-5.99489 0,-0.6858 0.62457,-0.64797 3.6855,0.22309 7.142,2.0325 17.81539,1.92626 25.83584,-0.25717 4.6117,-1.25544 6.13695,-2.04025 7.79521,-4.01102 3.27544,-3.89264 0.3214,-6.98963 -9.37374,-9.82735 l -4.11228,-1.20364 3.57066,0.22316 c 4.09258,0.25577 10.33546,2.1954 13.22873,4.11007 1.18669,0.78532 2.41251,2.20731 3.06538,3.55596 0.97095,2.00573 1.02164,2.46853 0.47147,4.30483 -1.10398,3.68481 -4.57974,6.03905 -11.80742,7.99769 -4.06767,1.10237 -15.54647,1.61609 -19.64303,0.87927 z m 5.93622,-11.01551 -2.0966,-1.51877 0,-31.32321 c 0,-20.91204 -0.17143,-31.42916 -0.51579,-31.64199 -0.51745,-0.31979 -17.02096,-2.18329 -57.68087,-6.51303 -12.00306,-1.27818 -22.10595,-2.41488 -22.45087,-2.52603 -1.06927,-0.34457 -0.7015,-1.04904 1.25425,-2.40244 l 1.88135,-1.30192 12.79324,1.24273 c 7.03627,0.68349 21.03358,2.02974 31.10511,2.99167 10.07153,0.96194 22.5741,2.15813 27.78348,2.65822 8.03577,0.77141 9.57587,1.05182 10.15934,1.84976 0.56173,0.76821 0.69774,6.13914 0.74244,29.31584 0.0647,33.55473 -0.0138,39.7847 -0.50821,40.30116 -0.20366,0.21274 -1.31374,-0.29668 -2.46687,-1.13199 z m -29.68983,-76.3574 -2.25764,-1.07366 2.93115,-0.40816 c 5.51201,-0.76754 8.50034,-4.03104 8.50034,-9.28306 0,-4.79701 -3.07272,-7.90942 -8.50034,-8.61014 l -2.93115,-0.37842 1.44094,-0.96141 c 2.13969,-1.42766 6.65253,-1.619 9.39939,-0.39852 8.03203,3.56878 9.89595,11.87516 4.18344,18.64318 -2.95039,3.49553 -8.3949,4.54903 -12.76613,2.47019 z m -59.90433,-7.8567 c -0.16804,-0.27191 0.76828,-0.88468 2.08073,-1.36171 8.78935,-3.19468 14.86536,-6.2215 14.07517,-7.01169 -0.13415,-0.13414 -7.78582,-1.72173 -17.0037,-3.52797 -22.00482,-4.31181 -20.52253,-3.88013 -20.52253,-5.97665 0,-0.93885 0.18361,-1.82047 0.40802,-1.95916 0.22441,-0.1387 1.86119,0.0681 3.63729,0.45963 1.7761,0.3915 11.46962,2.40484 21.54115,4.47408 l 18.31189,3.76227 3.01017,-1.82687 c 11.75444,-7.13377 28.97599,-21.28379 40.94165,-33.63953 12.84675,-13.26556 16.89609,-22.79927 10.13987,-23.87321 -6.26489,-0.99583 -21.70834,6.96885 -40.66223,19.45485 -7.72161,5.08666 -8.96063,5.54372 -2.50656,0.92466 25.43816,-18.20566 46.88212,-28.721 53.39231,-24.75148 4.2778,2.60834 2.00157,9.57427 -6.56443,20.08907 -5.89404,7.23496 -20.91008,21.52187 -30.91267,29.41167 -3.13237,2.47073 -16.56708,11.57716 -19.9398,13.51577 -0.89679,0.51545 -1.63051,1.10998 -1.63051,1.32117 0,0.46618 -0.78394,0.28406 15.80341,3.67138 7.45017,1.52141 13.94085,2.89111 14.42373,3.04378 1.47933,0.4677 0.98366,1.14762 -1.25423,1.72048 -1.17272,0.30019 -2.38075,0.62753 -2.68455,0.72744 -0.30377,0.0999 -7.30243,-1.15086 -15.55256,-2.77947 -8.25011,-1.6286 -15.4752,-2.96319 -16.05574,-2.96573 -0.58054,-0.003 -3.23228,1.01257 -5.89277,2.25582 -7.81359,3.65131 -15.86574,6.00212 -16.58311,4.8414 z"
       id="path3371"
       inkscape:connector-curvature="0"
       sodipodi:nodetypes="sssssscssssssscscssscssssscsscssscsssssssssssscssssssssssscscscss" />
    <path
       style="fill:#000000"
       d="m 265.06485,891.27283 c -4.87183,-0.87633 -12.71632,-4.57446 -12.71632,-5.99486 0,-0.68581 0.62458,-0.64799 3.6855,0.22307 7.14201,2.03251 17.81539,1.92622 25.83585,-0.25719 4.61169,-1.25545 6.13695,-2.04026 7.7952,-4.01098 3.27545,-3.89264 0.3214,-6.98963 -9.37373,-9.82735 l -4.11228,-1.20364 3.57066,0.22316 c 4.09257,0.25577 10.33545,2.19539 13.22872,4.11007 1.1867,0.78531 2.41252,2.20731 3.06538,3.55596 0.97096,2.00572 1.02165,2.46853 0.47147,4.30484 -1.10397,3.68477 -4.57973,6.03904 -11.80741,7.9977 -4.06768,1.10229 -15.54648,1.61606 -19.64304,0.87922 z m 5.93623,-11.01549 -2.0966,-1.51876 0,-31.32321 c 0,-20.91204 -0.17144,-31.42916 -0.5158,-31.64199 -0.51745,-0.31979 -17.02096,-2.1833 -57.68086,-6.51304 -12.00306,-1.27817 -22.10595,-2.41488 -22.45087,-2.52603 -1.06928,-0.34457 -0.7015,-1.04903 1.25424,-2.40243 l 1.88136,-1.30192 12.79323,1.24272 c 7.03628,0.6835 21.03358,2.02975 31.10512,2.99168 10.07153,0.96194 22.5741,2.15813 27.78348,2.65821 8.03577,0.77141 9.57587,1.05183 10.15934,1.84977 0.56172,0.7682 0.69774,6.13914 0.74244,29.31584 0.0647,33.55472 -0.0138,39.78469 -0.50821,40.30112 -0.20366,0.21274 -1.31374,-0.29664 -2.46687,-1.13196 z m -29.68985,-76.3574 -2.25762,-1.07365 2.93114,-0.40816 c 5.51201,-0.76754 8.50035,-4.03105 8.50035,-9.28306 0,-4.79702 -3.07272,-7.90943 -8.50035,-8.61015 l -2.93114,-0.37841 1.44093,-0.96142 c 2.13969,-1.42766 6.65254,-1.61899 9.3994,-0.39851 8.03203,3.56878 9.89595,11.87515 4.18343,18.64317 -2.95038,3.49554 -8.3949,4.54903 -12.76614,2.47019 z m -59.90431,-7.85669 c -0.16805,-0.27191 0.76828,-0.88468 2.08072,-1.36171 8.78936,-3.19468 14.86537,-6.22151 14.07518,-7.01169 -0.13415,-0.13415 -7.78582,-1.72174 -17.00371,-3.52797 -22.00481,-4.31181 -20.52252,-3.88014 -20.52252,-5.97666 0,-0.93885 0.18361,-1.82046 0.40801,-1.95915 0.22442,-0.1387 1.8612,0.0682 3.6373,0.45963 1.77609,0.3915 11.46962,2.40484 21.54115,4.47408 l 18.31189,3.76227 3.01017,-1.82687 c 11.75443,-7.13377 28.97599,-21.28379 40.94164,-33.63953 12.84676,-13.26555 16.89609,-22.79926 10.13987,-23.87321 -6.26488,-0.99583 -21.70833,6.96885 -40.66222,19.45485 -7.72161,5.08667 -8.96064,5.54373 -2.50656,0.92466 25.43815,-18.20566 46.88211,-28.721 53.3923,-24.75148 4.2778,2.60835 2.00158,9.57427 -6.56443,20.08907 -5.89403,7.23497 -20.91008,21.52186 -30.91266,29.41166 -3.13237,2.47073 -16.56709,11.57716 -19.9398,13.51577 -0.89679,0.51546 -1.63051,1.10999 -1.63051,1.32117 0,0.46619 -0.78395,0.28407 15.80339,3.67139 7.45019,1.52141 13.94087,2.89111 14.42375,3.04377 1.47932,0.46771 0.98365,1.14763 -1.25424,1.72049 -1.17271,0.30019 -2.38075,0.62753 -2.68454,0.72744 -0.30378,0.0999 -7.30243,-1.15087 -15.55256,-2.77947 -8.25012,-1.62861 -15.47521,-2.96319 -16.05575,-2.96573 -0.58053,-0.003 -3.23228,1.01257 -5.89276,2.25581 -7.8136,3.65132 -15.86575,6.00212 -16.58311,4.84141 z"
       id="path3371-0"
       inkscape:connector-curvature="0"
       sodipodi:nodetypes="sssssscssssssscscssscssssscsscssscsssssssssssscssssssssssscscscss" />
    <path
       style="fill:#000000"
       d="m 365.97729,913.06074 c -4.87182,-0.87633 -12.71631,-4.57446 -12.71631,-5.99487 0,-0.68579 0.62457,-0.64798 3.6855,0.22309 7.14199,2.03248 17.81537,1.92622 25.83584,-0.2572 4.6117,-1.25544 6.13693,-2.04026 7.79522,-4.01098 3.27543,-3.89264 0.32141,-6.98963 -9.37376,-9.82735 l -4.11226,-1.20364 3.57064,0.22316 c 4.09258,0.25577 10.33548,2.19539 13.22874,4.11007 1.18669,0.78532 2.41251,2.20731 3.06536,3.55596 0.97096,2.00573 1.02165,2.46853 0.47147,4.30484 -1.10398,3.68477 -4.57971,6.03905 -11.80738,7.99769 -4.06771,1.1023 -15.5465,1.61609 -19.64306,0.87923 z m 5.93622,-11.01548 -2.09656,-1.51877 0,-31.32321 c 0,-20.91204 -0.17147,-31.42915 -0.51583,-31.64199 -0.51747,-0.3198 -17.02095,-2.18329 -57.68085,-6.51303 -12.00307,-1.27818 -22.10597,-2.41489 -22.45088,-2.52603 -1.06928,-0.34458 -0.7015,-1.04904 1.25424,-2.40244 l 1.88136,-1.30192 12.79323,1.24273 c 7.03627,0.68349 21.03358,2.02974 31.10512,2.99167 10.07153,0.96193 22.5741,2.15813 27.7835,2.65822 8.03576,0.77141 9.57584,1.05182 10.15933,1.84976 0.5617,0.76821 0.69772,6.13914 0.74243,29.31584 0.0647,33.55473 -0.0136,39.78469 -0.50823,40.30113 -0.20366,0.21274 -1.31373,-0.29665 -2.46686,-1.13196 z m -29.68983,-76.3574 -2.25763,-1.07367 2.93114,-0.40815 c 5.51201,-0.76753 8.50035,-4.03104 8.50035,-9.28306 0,-4.79702 -3.07272,-7.90942 -8.50035,-8.61015 l -2.93114,-0.37841 1.44093,-0.96142 c 2.1397,-1.42765 6.65254,-1.61899 9.3994,-0.39851 8.03203,3.56877 9.89596,11.87516 4.18344,18.64318 -2.9504,3.49553 -8.39491,4.54903 -12.76614,2.47019 z m -59.90432,-7.8567 c -0.16804,-0.27191 0.76828,-0.88468 2.08072,-1.36171 8.78936,-3.19468 14.86536,-6.2215 14.07518,-7.01169 -0.13416,-0.13414 -7.78582,-1.72173 -17.00372,-3.52797 -22.00479,-4.31181 -20.52251,-3.88013 -20.52251,-5.97666 0,-0.93884 0.1836,-1.82046 0.40802,-1.95916 0.22441,-0.13869 1.86119,0.0682 3.63728,0.45964 1.77611,0.3915 11.46963,2.40484 21.54116,4.47408 l 18.31189,3.76228 3.01016,-1.82688 c 11.75444,-7.13377 28.976,-21.28379 40.94165,-33.63953 12.84674,-13.26556 16.89611,-22.79927 10.13987,-23.87321 -6.26488,-0.99583 -21.70834,6.96885 -40.66223,19.45484 -7.72161,5.08666 -8.96062,5.54373 -2.50655,0.92466 25.43815,-18.20565 46.8821,-28.72099 53.39229,-24.75148 4.27782,2.60835 2.0016,9.57427 -6.56442,20.08907 -5.89404,7.23497 -20.91007,21.52188 -30.91267,29.41168 -3.13237,2.47073 -16.56707,11.57716 -19.9398,13.51577 -0.89678,0.51545 -1.6305,1.10999 -1.6305,1.32117 0,0.46619 -0.78395,0.28406 15.8034,3.67138 7.45017,1.52141 13.94085,2.8911 14.42375,3.04378 1.47931,0.4677 0.98365,1.14762 -1.25425,1.72047 -1.17271,0.3002 -2.38075,0.62754 -2.68454,0.72745 -0.30378,0.0999 -7.30243,-1.15087 -15.55256,-2.77947 -8.25011,-1.6286 -15.4752,-2.96319 -16.05574,-2.96573 -0.58055,-0.003 -3.23229,1.01257 -5.89277,2.25582 -7.8136,3.65131 -15.86574,6.00212 -16.58311,4.8414 z"
       id="path3371-5"
       inkscape:connector-curvature="0"
       sodipodi:nodetypes="sssssscssssssscscssscssssscsscssscsssssssssssscssssssssssscscscss" />
    <text
       xml:space="preserve"
       style="font-size:80.41723633px;font-style:normal;font-weight:normal;line-height:125%;letter-spacing:0px;word-spacing:0px;fill:#000000;fill-opacity:1;stroke:none;font-family:sans-serif"
       x="825.69928"
       y="863.70538"
       id="text3394"
       sodipodi:linespacing="125%"><tspan
         sodipodi:role="line"
         id="tspan3396"
         x="825.69928"
         y="863.70538"
         style="font-size:140.73016357px;font-style:normal;font-variant:normal;font-weight:bold;font-stretch:normal;text-align:center;letter-spacing:5.48847532px;text-anchor:middle;font-family:sans-serif;-inkscape-font-specification:sans-serif Bold">MARTINI</tspan></text>
    <text
       xml:space="preserve"
       style="font-size:80.41723633px;font-style:normal;font-weight:normal;line-height:100%;letter-spacing:0px;word-spacing:0px;fill:#000000;fill-opacity:1;stroke:none;font-family:sans-serif"
       x="826.46918"
       y="913.37164"
       id="text3398"
       sodipodi:linespacing="100%"><tspan
         sodipodi:role="line"
         id="tspan3400"
         x="832.5849"
         y="913.37164"
         style="font-size:35.18254089px;font-style:normal;font-variant:normal;font-weight:bold;font-stretch:normal;text-align:center;line-height:100%;text-anchor:middle;font-family:sans-serif;-inkscape-font-specification:sans-serif Bold">Mock Array Radio Telescope </tspan><tspan
         sodipodi:role="line"
         x="826.46918"
         y="948.5542"
         id="tspan3402"
         style="font-size:35.18254089px;font-style:normal;font-variant:normal;font-weight:bold;font-stretch:normal;text-align:center;line-height:100%;text-anchor:middle;font-family:sans-serif;-inkscape-font-specification:sans-serif Bold">Interferometry of the Neutral ISM</tspan></text>
  </g>
</svg>
