<?xml version="1.0" encoding="UTF-8" standalone="no"?>
<!-- Created with Inkscape (http://www.inkscape.org/) -->

<svg
   xmlns:dc="http://purl.org/dc/elements/1.1/"
   xmlns:cc="http://creativecommons.org/ns#"
   xmlns:rdf="http://www.w3.org/1999/02/22-rdf-syntax-ns#"
   xmlns:svg="http://www.w3.org/2000/svg"
   xmlns="http://www.w3.org/2000/svg"
   xmlns:sodipodi="http://sodipodi.sourceforge.net/DTD/sodipodi-0.dtd"
   xmlns:inkscape="http://www.inkscape.org/namespaces/inkscape"
   width="184.06975mm"
   height="194.28183mm"
   viewBox="0 0 652.21564 688.40018"
   id="svg2"
   version="1.1"
   inkscape:version="0.91 r13725"
   sodipodi:docname="martini.svg">
  <defs
     id="defs4" />
  <sodipodi:namedview
     id="base"
     pagecolor="#ffffff"
     bordercolor="#666666"
     borderopacity="1.0"
     inkscape:pageopacity="0.0"
     inkscape:pageshadow="2"
     inkscape:zoom="0.98994949"
     inkscape:cx="414.29132"
     inkscape:cy="399.50483"
     inkscape:document-units="px"
     inkscape:current-layer="layer1"
     showgrid="false"
     fit-margin-top="1"
     fit-margin-left="1"
     fit-margin-right="1"
     fit-margin-bottom="1"
     inkscape:window-width="1920"
     inkscape:window-height="983"
     inkscape:window-x="0"
     inkscape:window-y="27"
     inkscape:window-maximized="1" />
  <metadata
     id="metadata7">
    <rdf:RDF>
      <cc:Work
         rdf:about="">
        <dc:format>image/svg+xml</dc:format>
        <dc:type
           rdf:resource="http://purl.org/dc/dcmitype/StillImage" />
        <dc:title></dc:title>
      </cc:Work>
    </rdf:RDF>
  </metadata>
  <g
     inkscape:label="Layer 1"
     inkscape:groupmode="layer"
     id="layer1"
     transform="translate(-55.978535,-326.89402)">
    <path
       style="fill:#000000"
       d="m 321.25727,1010.8916 c -12.13842,-2.1834 -31.68336,-11.39751 -31.68336,-14.93661 0,-1.7086 1.55615,-1.6144 9.18261,0.5559 17.79466,5.06401 44.38797,4.79931 64.37135,-0.6408 11.49026,-3.128 15.29053,-5.0834 19.42214,-9.9936 8.16095,-9.69872 0.8008,-17.41504 -23.35513,-24.48534 l -10.24597,-2.99894 8.89649,0.55601 c 10.19685,0.63727 25.75131,5.46993 32.96005,10.24045 2.95671,1.95665 6.0109,5.49964 7.63755,8.85985 2.41919,4.99738 2.54549,6.15049 1.1747,10.72577 -2.75063,9.1808 -11.41065,15.04661 -29.41879,19.92661 -10.13483,2.7465 -38.73485,4.0266 -48.94164,2.1907 z m 14.7904,-27.44569 -5.22376,-3.78407 0,-78.0434 c 0,-52.10344 -0.42715,-78.30738 -1.28515,-78.83766 -1.28926,-0.79679 -42.4086,-5.4398 -143.71485,-16.22757 -29.90625,-3.18463 -55.07813,-6.0168 -55.9375,-6.29373 -2.66417,-0.85852 -1.74783,-2.61372 3.125,-5.98578 l 4.6875,-3.2438 31.875,3.0963 c 17.53125,1.70296 52.40625,5.05722 77.5,7.45392 25.09375,2.3967 56.24455,5.37709 69.224,6.62308 20.02152,1.92201 23.85876,2.62068 25.3125,4.60878 1.39957,1.91403 1.73847,15.29598 1.84984,73.04194 0.16121,83.60333 -0.0345,99.12561 -1.26625,100.41237 -0.50742,0.53 -3.27325,-0.73914 -6.14633,-2.82038 z m -73.97376,-190.2484 -5.625,-2.67509 7.30309,-1.01694 c 13.73346,-1.91236 21.17905,-10.04355 21.17905,-23.12922 0,-11.95202 -7.65583,-19.70674 -21.17905,-21.45263 l -7.30309,-0.94284 3.59015,-2.39542 c 5.33117,-3.55707 16.57516,-4.03379 23.41909,-0.99291 20.01222,8.89179 24.65626,29.58756 10.42325,46.45043 -7.35105,8.70931 -20.91634,11.33414 -31.80749,6.15462 z M 112.8192,773.62215 c -0.4187,-0.67748 1.9142,-2.20423 5.18422,-3.39278 21.89914,-7.95971 37.03783,-15.5012 35.06903,-17.46998 -0.33424,-0.33424 -19.39877,-4.28981 -42.36562,-8.79013 -54.826116,-10.74311 -51.132927,-9.66756 -51.132927,-14.89116 0,-2.33918 0.45747,-4.53578 1.0166,-4.88134 0.55913,-0.34556 4.63726,0.16979 9.0625,1.14521 4.42524,0.97544 28.577154,5.99178 53.670907,11.14741 l 45.625,9.37389 7.5,-4.55175 c 29.28679,-17.77416 72.19519,-53.02965 102.00823,-83.81462 32.00836,-33.05184 42.09748,-56.80557 25.26401,-59.48134 -15.60928,-2.48118 -54.08744,17.36323 -101.31204,48.47275 -19.23879,12.67368 -22.32587,13.81249 -6.24521,2.30384 63.38047,-45.36034 116.8092,-71.55984 133.02969,-61.66959 10.65836,6.49882 4.98702,23.85479 -16.35562,50.05296 -14.6853,18.02628 -52.09854,53.62285 -77.02052,73.28068 -7.80445,6.15595 -41.27773,28.84511 -49.68104,33.67525 -2.23438,1.28428 -4.0625,2.76559 -4.0625,3.29176 0,1.16154 -1.95324,0.70776 39.375,9.14744 18.5625,3.79067 34.73437,7.20335 35.9375,7.58372 3.6858,1.16531 2.45082,2.85938 -3.125,4.28668 -2.92188,0.74794 -5.93177,1.56353 -6.68868,1.81245 -0.75688,0.2489 -18.19438,-2.86744 -38.75,-6.92519 -20.5556,-4.05775 -38.55728,-7.38293 -40.00373,-7.38926 -1.44645,-0.006 -8.0534,2.52287 -14.68212,5.62048 -19.46798,9.09744 -39.53033,14.9546 -41.31768,12.06262 z"
       id="path3371"
       inkscape:connector-curvature="0"
       sodipodi:nodetypes="sssssscssssssscscssscssssscsscssscsssssssssssscssssssssssscscscss" />
    <path
       style="fill:#000000"
       d="M 352.67792,756.28491 C 340.5395,754.1015 320.99456,744.8874 320.99456,741.3484 c 0,-1.7087 1.55615,-1.6145 9.18261,0.5558 17.79466,5.0641 44.38797,4.7993 64.37135,-0.6408 11.49026,-3.128 15.29053,-5.0834 19.42214,-9.99355 8.16095,-9.69873 0.8008,-17.41505 -23.35513,-24.48535 l -10.24597,-2.99894 8.89649,0.55601 c 10.19685,0.63727 25.75131,5.46993 32.96005,10.24045 2.95671,1.95665 6.0109,5.49964 7.63755,8.85985 2.41919,4.99738 2.54549,6.15049 1.1747,10.72574 -2.75063,9.18079 -11.41065,15.04659 -29.41879,19.92669 -10.13483,2.74641 -38.73485,4.02651 -48.94164,2.19061 z m 14.7904,-27.44565 -5.22376,-3.78407 0,-78.0434 c 0,-52.10344 -0.42715,-78.30738 -1.28515,-78.83766 -1.28926,-0.79679 -42.4086,-5.4398 -143.71485,-16.22757 -29.90625,-3.18463 -55.07813,-6.0168 -55.9375,-6.29373 -2.66417,-0.85852 -1.74783,-2.61372 3.125,-5.98578 l 4.6875,-3.2438 31.875,3.0963 c 17.53125,1.70296 52.40625,5.05722 77.5,7.45392 25.09375,2.3967 56.24455,5.37709 69.224,6.62308 20.02152,1.92201 23.85876,2.62068 25.3125,4.60878 1.39957,1.91403 1.73847,15.29598 1.84984,73.04194 0.16121,83.60333 -0.0345,99.12561 -1.26625,100.41233 -0.50742,0.53005 -3.27325,-0.7391 -6.14633,-2.82034 z m -73.97376,-190.2484 -5.625,-2.67509 7.30309,-1.01694 c 13.73346,-1.91236 21.17905,-10.04355 21.17905,-23.12922 0,-11.95202 -7.65583,-19.70674 -21.17905,-21.45263 l -7.30309,-0.94284 3.59015,-2.39542 c 5.33117,-3.55707 16.57516,-4.03379 23.41909,-0.99291 20.01222,8.89179 24.65626,29.58756 10.42325,46.45043 -7.35105,8.70931 -20.91634,11.33414 -31.80749,6.15462 z M 144.23985,519.0155 c -0.4187,-0.67748 1.9142,-2.20423 5.18422,-3.39278 21.89914,-7.95971 37.03783,-15.5012 35.06903,-17.46998 -0.33424,-0.33424 -19.39877,-4.28981 -42.36562,-8.79013 -54.826112,-10.74311 -51.132922,-9.66756 -51.132922,-14.89116 0,-2.33918 0.45747,-4.53578 1.0166,-4.88134 0.55913,-0.34556 4.63726,0.16979 9.062502,1.14521 4.42524,0.97544 28.57715,5.99178 53.6709,11.14741 l 45.625,9.37389 7.5,-4.55175 c 29.28679,-17.77416 72.19519,-53.02965 102.00823,-83.81461 32.00836,-33.05184 42.09748,-56.80557 25.26401,-59.48134 -15.60928,-2.48118 -54.08744,17.36323 -101.31204,48.47275 -19.23879,12.67368 -22.32587,13.81249 -6.24521,2.30384 63.38047,-45.36034 116.8092,-71.55985 133.02969,-61.66959 10.65836,6.49882 4.98702,23.85479 -16.35562,50.05296 -14.6853,18.02628 -52.09854,53.62284 -77.02052,73.28067 -7.80445,6.15595 -41.27773,28.84511 -49.68104,33.67525 -2.23438,1.28428 -4.0625,2.76559 -4.0625,3.29176 0,1.16154 -1.95324,0.70776 39.375,9.14744 18.5625,3.79067 34.73437,7.20335 35.9375,7.58372 3.6858,1.16531 2.45082,2.85938 -3.125,4.28668 -2.92188,0.74794 -5.93177,1.56353 -6.68868,1.81245 -0.75688,0.2489 -18.19438,-2.86744 -38.75,-6.92519 -20.5556,-4.05775 -38.55728,-7.38293 -40.00373,-7.38926 -1.44645,-0.006 -8.0534,2.52287 -14.68212,5.62048 -19.46798,9.09744 -39.53033,14.9546 -41.31768,12.06262 z"
       id="path3371-0"
       inkscape:connector-curvature="0"
       sodipodi:nodetypes="sssssscssssssscscssscssssscsscssscsssssssssssscssssssssssscscscss" />
    <path
       style="fill:#000000"
       d="m 604.10648,810.57061 c -12.1384,-2.18339 -31.68335,-11.39748 -31.68335,-14.93652 0,-1.70868 1.55615,-1.61448 9.18261,0.55585 17.79464,5.06403 44.38794,4.79928 64.37134,-0.64082 11.4903,-3.12801 15.2905,-5.08341 19.4222,-9.99356 8.1609,-9.69873 0.8008,-17.41505 -23.3552,-24.48535 l -10.2459,-2.99894 8.8964,0.55601 c 10.1969,0.63727 25.7514,5.46993 32.9601,10.24045 2.9567,1.95665 6.0109,5.49964 7.6375,8.85985 2.4192,4.99738 2.5455,6.15049 1.1747,10.72574 -2.7506,9.1808 -11.4106,15.04661 -29.4187,19.92664 -10.1349,2.74644 -38.7349,4.02659 -48.9417,2.19065 z m 14.7904,-27.44564 -5.2237,-3.78407 0,-78.0434 c 0,-52.10344 -0.4272,-78.30738 -1.2852,-78.83766 -1.2893,-0.79679 -42.4086,-5.4398 -143.71485,-16.22757 -29.90625,-3.18463 -55.07813,-6.0168 -55.9375,-6.29373 -2.66417,-0.85852 -1.74783,-2.61372 3.125,-5.98578 l 4.6875,-3.2438 31.875,3.0963 c 17.53125,1.70296 52.40625,5.05722 77.5,7.45392 25.09375,2.3967 56.24455,5.37709 69.22405,6.62308 20.0215,1.92201 23.8587,2.62068 25.3125,4.60878 1.3995,1.91403 1.7384,15.29598 1.8498,73.04194 0.1612,83.60333 -0.034,99.12561 -1.2663,100.41233 -0.5074,0.53005 -3.2732,-0.7391 -6.1463,-2.82034 z m -73.97375,-190.2484 -5.625,-2.67509 7.30309,-1.01694 c 13.73346,-1.91236 21.17905,-10.04355 21.17905,-23.12922 0,-11.95202 -7.65583,-19.70674 -21.17905,-21.45263 l -7.30309,-0.94284 3.59015,-2.39542 c 5.33117,-3.55707 16.57516,-4.03379 23.41909,-0.99291 20.01221,8.89179 24.65631,29.58756 10.42325,46.45043 -7.35105,8.70931 -20.91634,11.33414 -31.80749,6.15462 z M 395.66842,573.30121 c -0.4187,-0.67748 1.9142,-2.20423 5.18422,-3.39278 21.89914,-7.95971 37.03783,-15.5012 35.06903,-17.46998 -0.33424,-0.33424 -19.39877,-4.28981 -42.36562,-8.79013 -54.82611,-10.74311 -51.13292,-9.66756 -51.13292,-14.89116 0,-2.33918 0.45747,-4.53578 1.0166,-4.88134 0.55913,-0.34556 4.63726,0.16979 9.0625,1.14521 4.42524,0.97544 28.57715,5.99178 53.6709,11.14741 l 45.625,9.37389 7.5,-4.55175 c 29.28679,-17.77416 72.19519,-53.02965 102.00823,-83.81463 32.00832,-33.05184 42.09752,-56.80557 25.26402,-59.48134 -15.60929,-2.48118 -54.08745,17.36323 -101.31205,48.47275 -19.23879,12.67368 -22.32587,13.81249 -6.24521,2.30384 63.38047,-45.36034 116.80916,-71.55984 133.02966,-61.66959 10.6584,6.49882 4.9871,23.85479 -16.3556,50.05296 -14.68529,18.02628 -52.09853,53.62286 -77.02051,73.28069 -7.80445,6.15595 -41.27773,28.84511 -49.68104,33.67525 -2.23438,1.28428 -4.0625,2.76559 -4.0625,3.29176 0,1.16154 -1.95324,0.70776 39.375,9.14744 18.5625,3.79067 34.73437,7.20335 35.9375,7.58372 3.6858,1.16531 2.45082,2.85938 -3.125,4.28668 -2.92188,0.74794 -5.93177,1.56353 -6.68868,1.81245 -0.75688,0.2489 -18.19438,-2.86744 -38.75,-6.92519 -20.5556,-4.05775 -38.55728,-7.38293 -40.00373,-7.38926 -1.44645,-0.006 -8.0534,2.52287 -14.68212,5.62048 -19.46798,9.09744 -39.53033,14.9546 -41.31768,12.06262 z"
       id="path3371-5"
       inkscape:connector-curvature="0"
       sodipodi:nodetypes="sssssscssssssscscssscssssscsscssscsssssssssssscssssssssssscscscss" />
    <text
       xml:space="preserve"
       style="font-style:normal;font-weight:normal;font-size:40px;line-height:125%;font-family:sans-serif;letter-spacing:0px;word-spacing:0px;fill:#000000;fill-opacity:1;stroke:none;stroke-width:1px;stroke-linecap:butt;stroke-linejoin:miter;stroke-opacity:1"
       x="531.54089"
       y="883.37225"
       id="text3394"
       sodipodi:linespacing="125%"><tspan
         sodipodi:role="line"
         id="tspan3396"
         x="532.90588"
         y="883.37225"
         style="font-style:normal;font-variant:normal;font-weight:bold;font-stretch:normal;font-size:70px;font-family:sans-serif;-inkscape-font-specification:'sans-serif Bold';text-align:center;letter-spacing:2.7299993px;text-anchor:middle">MARTINI</tspan></text>
    <text
       xml:space="preserve"
       style="font-style:normal;font-weight:normal;font-size:40px;line-height:100%;font-family:sans-serif;letter-spacing:0px;word-spacing:0px;fill:#000000;fill-opacity:1;stroke:none;stroke-width:1px;stroke-linecap:butt;stroke-linejoin:miter;stroke-opacity:1"
       x="531.92383"
       y="908.07654"
       id="text3398"
       sodipodi:linespacing="100%"><tspan
         sodipodi:role="line"
         id="tspan3400"
         x="534.96582"
         y="908.07654"
         style="font-style:normal;font-variant:normal;font-weight:bold;font-stretch:normal;font-size:17.5px;line-height:100%;font-family:sans-serif;-inkscape-font-specification:'sans-serif Bold';text-align:center;text-anchor:middle">Mock APERTIF-like Radio Telescope </tspan><tspan
         sodipodi:role="line"
         x="531.92383"
         y="925.57654"
         id="tspan3402"
         style="font-style:normal;font-variant:normal;font-weight:bold;font-stretch:normal;font-size:17.5px;line-height:100%;font-family:sans-serif;-inkscape-font-specification:'sans-serif Bold';text-align:center;text-anchor:middle">Interferometry of the Neutral ISM</tspan></text>
  </g>
</svg>
